<svg xmlns="http://www.w3.org/2000/svg" width="183" height="183" viewBox="0 0 183 183"><defs><style>.a{fill:#fff;}.b,.c,.d,.h{fill:none;}.b,.c,.d,.f,.g,.h{stroke:#000109;stroke-miterlimit:10;}.b{stroke-width:9px;}.c,.d{stroke-width:10px;}.d{stroke-linecap:square;}.e{fill:#000109;}.g{stroke-width:0.5px;}.h{stroke-width:2px;}</style></defs><rect class="a" width="183" height="183" rx="91.5"/><line class="b" x1="147.82" y1="94.59" x2="112.3" y2="104.43"/><line class="c" x1="80.74" y1="66.41" x2="80.74" y2="94.09"/><line class="c" x1="80.04" y1="63.64" x2="100.95" y2="90.94"/><line class="c" x1="100.25" y1="60.9" x2="100.25" y2="88.18"/><path class="c" d="M70.32,60.32V80.54a12.43,12.43,0,1,1-24.86,0V50" transform="translate(-5.03 -2.88)"/><line class="d" x1="135.29" y1="51.59" x2="135.32" y2="71.34"/><path class="d" d="M140.35,78.38a9.88,9.88,0,1,1-9.87-9.87A9.86,9.86,0,0,1,140.35,78.38Z" transform="translate(-5.03 -2.88)"/><circle class="e" cx="25.72" cy="88.43" r="6"/><path class="f" d="M66.18,136.26l-2.05-8.09h1.1l1,4.09c.24,1,.46,2,.6,2.8h0c.13-.8.38-1.76.66-2.81l1.08-4.08h1.09l1,4.11c.23,1,.44,1.92.56,2.77h0c.17-.89.39-1.79.65-2.8l1.06-4.08H74l-2.29,8.09H70.62l-1-4.21a25.11,25.11,0,0,1-.53-2.64h0a27.09,27.09,0,0,1-.63,2.64l-1.15,4.21Z" transform="translate(-5.03 -2.88)"/><path class="f" d="M74.92,127.74h1v3.62h0a2,2,0,0,1,.75-.74,2.19,2.19,0,0,1,1.08-.3c.78,0,2,.48,2,2.48v3.46H78.8v-3.34c0-.93-.34-1.72-1.34-1.72A1.54,1.54,0,0,0,76,132.25a1.31,1.31,0,0,0-.07.51v3.5h-1Z" transform="translate(-5.03 -2.88)"/><path class="f" d="M82.16,133.55a1.86,1.86,0,0,0,2,2,3.75,3.75,0,0,0,1.6-.3l.18.76a4.63,4.63,0,0,1-1.93.36,2.69,2.69,0,0,1-2.85-2.93c0-1.75,1-3.13,2.72-3.13a2.47,2.47,0,0,1,2.4,2.74,4.35,4.35,0,0,1,0,.49Zm3.1-.76a1.5,1.5,0,0,0-1.46-1.71,1.74,1.74,0,0,0-1.62,1.71Z" transform="translate(-5.03 -2.88)"/><path class="f" d="M87.59,132.26c0-.68,0-1.27,0-1.81h.92l0,1.14h0a1.74,1.74,0,0,1,1.6-1.27.91.91,0,0,1,.3,0v1a1.75,1.75,0,0,0-.35,0,1.47,1.47,0,0,0-1.42,1.35,3.52,3.52,0,0,0-.05.49v3.1h-1Z" transform="translate(-5.03 -2.88)"/><path class="f" d="M92,133.55a1.85,1.85,0,0,0,2,2,3.8,3.8,0,0,0,1.61-.3l.18.76a4.67,4.67,0,0,1-1.93.36A2.7,2.7,0,0,1,91,133.45c0-1.75,1-3.13,2.73-3.13a2.46,2.46,0,0,1,2.39,2.74,4.88,4.88,0,0,1,0,.49Zm3.09-.76a1.49,1.49,0,0,0-1.46-1.71A1.75,1.75,0,0,0,92,132.79Z" transform="translate(-5.03 -2.88)"/><path class="f" d="M100.37,130.45l.77,3c.16.65.32,1.25.43,1.85h0c.14-.59.33-1.21.52-1.83l.95-3H104l.9,2.91c.22.69.39,1.3.52,1.89h0a16.15,16.15,0,0,1,.44-1.88l.83-2.92h1l-1.87,5.81h-1l-.89-2.77c-.2-.65-.37-1.23-.51-1.91h0a14.91,14.91,0,0,1-.53,1.92l-.93,2.76h-1l-1.75-5.81Z" transform="translate(-5.03 -2.88)"/><path class="f" d="M109.25,133.55a1.85,1.85,0,0,0,2,2,3.83,3.83,0,0,0,1.61-.3l.18.76a4.72,4.72,0,0,1-1.94.36,2.7,2.7,0,0,1-2.85-2.93c0-1.75,1-3.13,2.72-3.13a2.46,2.46,0,0,1,2.4,2.74,4.88,4.88,0,0,1,0,.49Zm3.09-.76a1.5,1.5,0,0,0-1.46-1.71,1.74,1.74,0,0,0-1.62,1.71Z" transform="translate(-5.03 -2.88)"/><path class="g" d="M120,136.39c0,.35,0,.65,0,.92h-.54l0-.55h0a1.28,1.28,0,0,1-1.12.62c-.53,0-1.16-.29-1.16-1.48v-2h.61v1.87c0,.64.2,1.08.76,1.08a.9.9,0,0,0,.81-.56,1.07,1.07,0,0,0,0-.32v-2.07H120Z" transform="translate(-5.03 -2.88)"/><path class="g" d="M121.05,134.84c0-.34,0-.63,0-.91h.54l0,.56h0a1.25,1.25,0,0,1,1.12-.64c.46,0,1.19.28,1.19,1.44v2h-.61v-1.95c0-.54-.21-1-.78-1a.88.88,0,0,0-.83.63.85.85,0,0,0,0,.29v2h-.61Z" transform="translate(-5.03 -2.88)"/><path class="g" d="M125.63,133v1h.88v.47h-.88v1.82c0,.42.12.66.46.66a1.4,1.4,0,0,0,.36,0l0,.46a1.49,1.49,0,0,1-.55.09.85.85,0,0,1-.66-.26,1.22,1.22,0,0,1-.24-.88V134.4h-.52v-.47H125v-.81Z" transform="translate(-5.03 -2.88)"/><path class="g" d="M129.07,137.31l0-.43h0a1.24,1.24,0,0,1-1,.5,1,1,0,0,1-1-1c0-.81.72-1.26,2-1.25v-.07a.7.7,0,0,0-.77-.78,1.74,1.74,0,0,0-.88.25l-.14-.41a2.1,2.1,0,0,1,1.11-.3c1,0,1.28.71,1.28,1.39v1.26a5,5,0,0,0,.06.81Zm-.09-1.73c-.67,0-1.43.11-1.43.76a.55.55,0,0,0,.58.59.85.85,0,0,0,.82-.56.75.75,0,0,0,0-.2Z" transform="translate(-5.03 -2.88)"/><path class="g" d="M133.48,133.93c0,.25,0,.52,0,.93v2a2,2,0,0,1-.48,1.54,1.8,1.8,0,0,1-1.23.41,2.16,2.16,0,0,1-1.12-.28l.15-.47a1.89,1.89,0,0,0,1,.26c.63,0,1.09-.32,1.09-1.17v-.38h0a1.2,1.2,0,0,1-1.07.56,1.51,1.51,0,0,1-1.44-1.64,1.63,1.63,0,0,1,1.52-1.8,1.13,1.13,0,0,1,1.06.59h0l0-.51Zm-.64,1.33a1.27,1.27,0,0,0,0-.28.9.9,0,0,0-.86-.64c-.59,0-1,.49-1,1.27s.34,1.22,1,1.22a.89.89,0,0,0,.85-.63,1,1,0,0,0,.05-.33Z" transform="translate(-5.03 -2.88)"/><path class="g" d="M137.38,133.93c0,.25,0,.52,0,.93v2a1.93,1.93,0,0,1-.48,1.54,1.78,1.78,0,0,1-1.23.41,2.19,2.19,0,0,1-1.12-.28l.15-.47a1.89,1.89,0,0,0,1,.26c.63,0,1.09-.32,1.09-1.17v-.38h0a1.23,1.23,0,0,1-1.08.56,1.51,1.51,0,0,1-1.44-1.64,1.63,1.63,0,0,1,1.52-1.8,1.13,1.13,0,0,1,1.06.59h0l0-.51Zm-.64,1.33a.86.86,0,0,0,0-.28.88.88,0,0,0-.86-.64c-.59,0-1,.49-1,1.27s.34,1.22,1,1.22a.89.89,0,0,0,.85-.63,1,1,0,0,0,.05-.33Z" transform="translate(-5.03 -2.88)"/><path class="g" d="M138.37,132.35H139v5h-.61Z" transform="translate(-5.03 -2.88)"/><path class="g" d="M140.36,135.73a1.08,1.08,0,0,0,1.16,1.17,2.17,2.17,0,0,0,.93-.17l.11.44a2.74,2.74,0,0,1-1.13.21,1.57,1.57,0,0,1-1.66-1.71,1.64,1.64,0,0,1,1.59-1.82,1.43,1.43,0,0,1,1.39,1.59,1.85,1.85,0,0,1,0,.29Zm1.8-.44a.87.87,0,0,0-.85-1,1,1,0,0,0-.94,1Z" transform="translate(-5.03 -2.88)"/><path class="f" d="M160,59.42a3,3,0,0,1,1.06.86l.26.3a11.54,11.54,0,0,0,1.15,1.12,2.38,2.38,0,0,0,.84.49,2,2,0,0,1-.36.66.58.58,0,0,1-.44.19.85.85,0,0,1-.48-.18,3.05,3.05,0,0,1-.61-.6q-.27-.3-.72-.84c-.92-1.12-1.66-1.67-2.2-1.67h-.23l-.33,0c0,.87.06,1.5.11,1.91a3.3,3.3,0,0,0,.25.94,3.13,3.13,0,0,1-.51.23,1.9,1.9,0,0,1-.44.07.5.5,0,0,1-.44-.17,1.22,1.22,0,0,1-.12-.67c0-.12,0-.63.06-1.54s0-1.77,0-2.57a21.65,21.65,0,0,0-.08-2.29,3.7,3.7,0,0,0-.26-1.13c.5,0,1,0,1.58-.08l.92-.05a3.17,3.17,0,0,1,2.08.63,2.1,2.1,0,0,1,.76,1.7,2.67,2.67,0,0,1-.48,1.61A3,3,0,0,1,160,59.42Zm-2-4c0,.65-.06,1.27-.07,1.87s0,1.18,0,1.74h.27a2.86,2.86,0,0,0,1.87-.56,1.93,1.93,0,0,0,.67-1.56,1.46,1.46,0,0,0-.49-1.18,2.11,2.11,0,0,0-1.4-.42,2.69,2.69,0,0,0-.4,0A3.49,3.49,0,0,0,158,55.43Z" transform="translate(-5.03 -2.88)"/><circle class="h" cx="154.9" cy="55.86" r="8.38"/></svg>