<svg xmlns="http://www.w3.org/2000/svg" width="482" height="454" viewBox="0 0 482 454"><path d="M486,57.24V293.76A52.24,52.24,0,0,1,433.76,346H430.5A46.5,46.5,0,0,0,384,392.5v14.26A52.24,52.24,0,0,1,331.76,459H56.24A52.24,52.24,0,0,1,4,406.76V319H63.82A29.19,29.19,0,0,0,93,289.82V266.18A29.19,29.19,0,0,0,63.82,237H4V170.24a52.24,52.24,0,0,1,47.15-52,46.89,46.89,0,0,0,8.35.75A46.45,46.45,0,0,0,106,72.5V57.24A52.24,52.24,0,0,1,158.24,5H292V27.82A29.19,29.19,0,0,0,321.18,57h23.64A29.19,29.19,0,0,0,374,27.82V5h59.76A52.24,52.24,0,0,1,486,57.24Z" transform="translate(-4 -5)"/></svg>