<svg xmlns="http://www.w3.org/2000/svg" width="183" height="183" viewBox="0 0 183 183"><defs><style>.a,.b,.c,.e{fill:none;}.a,.b,.c,.d,.e{stroke:#fff;stroke-miterlimit:10;}.a{stroke-width:9px;}.b,.c{stroke-width:10px;}.c{stroke-linecap:square;}.d{fill:#fff;}.e{stroke-width:2px;}</style></defs><rect width="183" height="183" rx="91.5"/><line class="a" x1="147.82" y1="110.31" x2="112.3" y2="120.16"/><line class="b" x1="80.74" y1="82.14" x2="80.74" y2="109.81"/><line class="b" x1="80.04" y1="79.37" x2="100.95" y2="106.67"/><line class="b" x1="100.25" y1="76.63" x2="100.25" y2="103.9"/><path class="b" d="M68.8,77.7V97.92a12.43,12.43,0,0,1-24.86,0V67.38" transform="translate(-3.51 -4.54)"/><line class="c" x1="135.29" y1="67.31" x2="135.32" y2="87.06"/><path class="c" d="M138.83,95.77A9.88,9.88,0,1,1,129,85.89,9.87,9.87,0,0,1,138.83,95.77Z" transform="translate(-3.51 -4.54)"/><circle class="d" cx="25.72" cy="104.16" r="6"/><path class="d" d="M158.47,76.81a2.83,2.83,0,0,1,1.06.86l.26.29a10.51,10.51,0,0,0,1.15,1.12,2.43,2.43,0,0,0,.84.5,2,2,0,0,1-.36.65.59.59,0,0,1-.44.2.85.85,0,0,1-.48-.18,3.36,3.36,0,0,1-.61-.6c-.18-.2-.42-.49-.72-.85-.92-1.11-1.66-1.67-2.2-1.67h-.23l-.33,0c0,.87.06,1.51.11,1.91a3.21,3.21,0,0,0,.25.94,3.13,3.13,0,0,1-.51.23,1.48,1.48,0,0,1-.44.07.5.5,0,0,1-.44-.16,1.29,1.29,0,0,1-.12-.68c0-.11,0-.63.06-1.54s.05-1.76.05-2.56a21.53,21.53,0,0,0-.08-2.29A3.7,3.7,0,0,0,155,72l1.58-.07c.55,0,.86,0,.92,0a3.17,3.17,0,0,1,2.08.62,2.12,2.12,0,0,1,.76,1.7,2.72,2.72,0,0,1-.48,1.62A3.18,3.18,0,0,1,158.47,76.81Zm-2-4c0,.65-.06,1.28-.07,1.88s0,1.17,0,1.73h.27a2.86,2.86,0,0,0,1.87-.56,1.93,1.93,0,0,0,.67-1.56,1.46,1.46,0,0,0-.49-1.18,2.16,2.16,0,0,0-1.4-.41,2.68,2.68,0,0,0-.4,0Z" transform="translate(-3.51 -4.54)"/><circle class="e" cx="154.9" cy="71.59" r="8.38"/></svg>