<svg xmlns="http://www.w3.org/2000/svg" width="336" height="380" viewBox="0 0 336 380"><defs><style>.a{fill:#fff;}.b{fill:none;stroke:#000;stroke-miterlimit:10;stroke-dasharray:2;}</style></defs><path class="a" d="M168.59,38l-.09,0-.09,0Z" transform="translate(-35 -38)"/><path d="M168.59,38h-.18l.09,0,.09,0Z" transform="translate(-35 -38)"/><path d="M283.84,41h-2v1h2V41Zm-4,0h-2v1h2V41Zm-4,0h-2v1h2V41Zm-4,0h-2v1h2V41Zm-4,0h-2v1h2V41Zm-4,0h-2v1h2V41Zm-4,0h-2v1h2V41Zm-4,0h-2v1h2V41Zm-4,0h-2v1h2V41Zm-4,0h-2v1h2V41Zm-4,0h-2v1h2V41Zm-4,0h-2v1h2V41Zm-4,0h-2v1h2V41Zm-4,0h-2v1h2V41Zm-4,0h-2v1h2V41Zm-4,0h-2v1h2V41Zm-3.9.37a8.18,8.18,0,0,0-.69.45h-.07a8.22,8.22,0,0,0-.86.67l.65.76a10.75,10.75,0,0,1,1.48-1.07l-.51-.86Zm-3,2.6-.3.38h0l0,0h-.05l0,0h0c-.21.3-.41.61-.59.93h0l0,.08.87.49a9.35,9.35,0,0,1,1-1.51l-.78-.63Zm-2,3.46c-.06.19-.13.37-.19.56h0v0h0v0h0v0h0c-.12.39-.22.78-.31,1.18l1,.22a13.36,13.36,0,0,1,.51-1.79l-.94-.35Zm-.86,3.9v.12h0v0h0v0h0v0h0v0h0v0h0v0h0v0h0v0h0v0h0v0h0c0,.34,0,.68-.05,1h0v0h0v0h0v0h0v0h0v0h0v0h0v0h0v.28h1c0-.65,0-1.29.09-1.9l-1-.1Zm.9,4h-1v2h1v-2Zm0,4h-1v2h1v-2Zm0,4h-1v.45h0v0h0v0h0v0h0v0h0v0h0v0h0v0h0v0h0v0h0v0h0v0h0v0h0v0h0v0h0v0h0v0h0v0h0v0h0v0h0v0h0v0h0v0h0v0h0v0h0v0h0v0h0v0h0v0h0v0h0v0h0v0h0v0h0v0h0v0h0v0h0l0,.36,1,.1c.05-.55.08-1.1.08-1.65v-.45Zm-1.38,4c-.05.22-.11.45-.17.67h0v0h0v0h0v0h0s0,.11,0,.16h0v0h0c-.09.32-.2.64-.31,1l.94.34a15.57,15.57,0,0,0,.59-2l-1-.21Zm-1.36,3.75a16.13,16.13,0,0,1-1,1.7l.81.58a14.54,14.54,0,0,0,1.12-1.82l-.88-.46Zm-2.35,3.22a11.76,11.76,0,0,1-1.2,1h-.1l-.23.16.57.82a12.27,12.27,0,0,0,1.67-1.4l-.71-.7Zm-3.27,2.26-.12.06h-.12l-.29.11H206a7.32,7.32,0,0,1-.94.29H205l-.23,0,.21,1a10.93,10.93,0,0,0,1.48-.44l.61-.25-.41-.92Zm-3.88.84h-2v1h2v-1Zm-4,0h-2v1h2v-1Zm-4,0h-2v1h2v-1Zm-4,0h-2v1h2v-1Zm-4,0h-2v1h2v-1Zm-4,0h-2v1h2v-1Zm-4,0h-2v1h2v-1Zm-4,0h-2v1h2v-1Zm-4,0-.78.08h0l-.6.06h-.56l-.08,1h.36a8.51,8.51,0,0,0,1.15-.09l.64-.07-.08-1Zm-4,0h-2v1h2v-1Zm-4,0h-2v1h2v-1Zm-4,0h-2v1h2v-1Zm-4,0h-2v1h2v-1Zm-4,0h-2v1h2v-1Zm-4,0h-2v1h2v-1Zm-4,0h-2v1h2v-1Zm-4,0h-2v1h2v-1Zm-4,0h-2v1h2v-1Zm-6-.11-.16,1a10.41,10.41,0,0,0,1.58.12h.57v-1h-1.58l-.41,0Zm-3.72-1.4-.53.84a11.21,11.21,0,0,0,2,1l.36-.94-.23-.08h-.21a10.9,10.9,0,0,1-1.35-.71Zm-3-2.67-.79.62a13.89,13.89,0,0,0,1.48,1.58l.67-.74-.45-.43h-.15c-.26-.27-.52-.57-.76-.87Zm-2-3.46-.92.38a16.19,16.19,0,0,0,.93,1.92l.87-.5h-.15a9.86,9.86,0,0,1-.46-.92h-.14c-.05-.1-.09-.2-.13-.3Zm-1-3.86-1,.13a18.18,18.18,0,0,0,.4,2.08l1-.25c0-.11-.06-.23-.08-.34h0v0h0c-.08-.34-.15-.7-.2-1h0v0h0l-.06-.38Zm-.13-4h-1v2h1v-.11h0V61.88Zm0-4h-1v2h1v-2Zm0-4h-1v2h1v-2Zm-.28-4-1,.17A18.8,18.8,0,0,1,118,52l1-.07c0-.07,0-.14,0-.2h0v0h0v0h0v0h0v0h0v0h0v0h0v0h0v0h0v0h0v0h0v0h0v0h0c0-.46-.1-.93-.18-1.39Zm-1.12-3.83-.91.41a13.81,13.81,0,0,1,.63,1.75l1-.28-.09-.3h-.1l0-.1h0v0h0v0h0v0h0v0h0v0h0c-.11-.31-.24-.61-.37-.91Zm-2.26-3.26-.68.73a8,8,0,0,1,1.15,1.35l.83-.57a.71.71,0,0,1-.1-.14h-.05a8.49,8.49,0,0,0-.81-1h0l-.05,0h-.17l0,0h-.06ZM112,41h-.17v.68l-.07.29.07-.29h0l-.07.29.07,0h0a6.48,6.48,0,0,1,1.37.53l.46-.89A7.56,7.56,0,0,0,112,41Zm-2.17,0h-2v1h2V41Zm-4,0h-2v1h2V41Zm-4,0h-2v1h2V41Zm-4,0h-2v1h2V41Zm-4,0h-2v1h2V41Zm-4,0h-2v1h2V41Zm-4,0h-2v1h2V41Zm-4,0h-2v1h2V41Zm-4,0h-2v1h2V41Zm-4,0h-2v1h2V41Zm-4,0h-2v1h2V41Zm-4,0h-2v1h2V41Zm-4,0c-.67,0-1.33,0-2,.12l.1,1c.63-.06,1.27-.1,1.91-.11l0-1Zm-4,.41c-.41.08-.82.17-1.22.27h-.42l-.3.08.27,1c.61-.18,1.24-.33,1.86-.45l-.19-1ZM54,42.5c-.49.19-1,.39-1.44.61h0l-.06,0h0l0,0h-.17l0,0h0l-.1,0,.43.91c.58-.28,1.17-.54,1.76-.76L54,42.5Zm-3.61,1.73c-.57.33-1.13.69-1.68,1.07l.57.82c.52-.36,1.07-.71,1.62-1l-.51-.86ZM47.13,46.5l-.54.44h0l-.05,0h-.09l0,0h0l0,0h0l0,0h0l0,0h0c-.25.22-.5.44-.74.67l.68.73c.47-.44,1-.86,1.45-1.26l-.62-.78ZM44.2,49.22l-.62.68h0l0,0h0l0,.05h0l0,0h0l0,0h0v0h0l0,0h0v0h0l0,0h0l0,0h0l-.39.46.78.63c.41-.5.84-1,1.27-1.45l-.73-.69Zm-2.53,3.1,0,0h0v0h0v0h0v0h0l0,0h0l0,0h0v0h0l0,0h0l0,0h0l0,0h0v0h0l0,0h0v0h0v0h0v0h0l0,0h0v0h0l0,.05h0l-.43.65h0l0,0h0v0h0l-.13.2.85.54c.34-.55.71-1.09,1.08-1.61l-.81-.58ZM39.54,55.7l-.44.81h0v0h0l0,.05h0v0h0c-.14.27-.28.55-.41.84l.9.43c.28-.59.57-1.17.88-1.73l-.87-.48Zm-1.72,3.61,0,0h0v0h0c-.24.58-.46,1.17-.67,1.78l1,.33c.21-.62.44-1.23.68-1.82l-.92-.38Zm-1.31,3.77c-.19.64-.35,1.29-.51,1.94l1,.23c.15-.64.31-1.27.49-1.89l-1-.28Zm-.9,3.9-.09.5h0v0h0v0h0v0h0v0h0v0h0v0h0v.06h0v0h0v0h0l0,.09h0v0h0c-.05.34-.1.68-.14,1l1,.12c.08-.64.18-1.29.29-1.93l-1-.17Zm-.5,4V71h0v0h0v0h0v0h0v0h0v0h0v0h0c0,.57-.06,1.14-.08,1.71l1,0c0-.65.05-1.31.1-2l-1-.07Zm.89,4H35v2h1v-2Zm0,4H35v2h1v-2Zm0,4H35v2h1v-2Zm0,4H35v2h1v-2Zm0,4H35v2h1v-2Zm0,4H35v2h1v-2Zm0,4H35v2h1v-2Zm0,4H35v2h1v-2Zm0,4H35v2h1v-2Zm0,4H35v2h1v-2Zm0,4H35v2h1v-2Zm0,4H35v2h1v-2Zm0,4H35v2h1v-2Zm0,4H35v2h1v-2Zm0,4H35v2h1v-2Zm0,4H35v2h1v-2Zm0,4H35v2h1v-2Zm0,4H35v2h1v-2Zm0,4H35v2h1v-2Zm0,4H35v2h1v-2Zm0,4H35v2h1v-2Zm0,4H35v2h1v-2Zm0,4H35v2h1v-2Zm0,4H35v2h1v-2Zm0,4H35v2h1v-2Zm0,4H35v2h1v-2Zm0,4H35v2h1v-2Zm0,4H35v2h1v-2Zm0,4H35v2h1v-2Zm0,4H35v2h1v-2Zm0,4H35v2h1v-2Zm0,4H35v2h1v-2Zm0,4H35v2h1v-2Zm0,4H35v2h1v-2Zm0,4H35v2h1v-2Zm0,4H35v2h1v-2Zm0,4H35v2h1v-2Zm0,4H35v2h1v-2Zm0,4H35v2h1v-2Zm0,4H35v2h1v-2Zm0,4H35v2h1v-2Zm0,4H35v2h1v-2Zm0,4H35v2h1v-2Zm0,4H35v2h1v-2Zm0,4H35v2h1v-2Zm0,4H35v2h1v-2Zm0,4H35v2h1v-2Zm0,4H35v2h1v-2Zm0,4H35v2h1v-2Zm0,4H35v2h1v-2Zm0,4H35v2h1v-2Zm0,4H35v2h1v-2Zm0,4H35v2h1v-2Zm0,4H35v2h1v-2Zm0,4H35v2h1v-2Zm0,4H35v2h1v-2Zm0,4H35v2h1v-2Zm0,4H35v2h1v-2Zm0,4H35v2h1v-2Zm0,4H35v2h1v-2Zm0,4H35v2h1v-2Zm0,4H35v2h1v-2Zm0,4H35v2h1v-2Zm0,4H35v2h1v-2Zm0,4H35v2h1v-2Zm0,4H35v2h1v-2Zm0,4H35v2h1v-2Zm0,4H35v2h1v-2Zm0,4H35v2h1v-2Zm0,4H35v2h1v-2Zm0,4H35v2h1v-2Zm0,4H35v2h1v-2Zm0,4H35v2h1v-2Zm0,4H35v2h1v-2Zm0,4H35v2h1v-2Zm0,4H35v2h1v-2Zm0,4H35v2h1v-2Zm0,4H35v2h1v-2Zm0,3.95-1,0c0,.68.08,1.34.15,2l1-.1c-.06-.64-.11-1.29-.14-1.94Zm.38,3.88-1,.14c0,.17,0,.33.07.5h0v0h0v0h0v0h0v0h0v0h0v0h0v0h0v0h0v0h0v0h0v.07h0v0h0c.06.35.13.7.2,1.05l1-.19c-.13-.63-.24-1.28-.33-1.92Zm.76,3.82-1,.24c.16.65.34,1.3.54,1.93l1-.3c-.2-.62-.38-1.25-.54-1.87Zm1.17,3.71-.94.35c.18.47.36.92.55,1.38h0v0h0v0h0v0h0c0,.12.09.23.14.34l.92-.4c-.26-.59-.5-1.19-.73-1.8Zm1.56,3.56-.89.45c.3.6.62,1.18,1,1.76l.86-.51c-.32-.55-.64-1.13-.93-1.7Zm2,3.35-.83.55c.14.22.3.45.45.66h0v0h0v0h0l0,0h0v0h0c.19.27.39.54.59.8l.79-.61c-.38-.5-.76-1-1.12-1.57Zm2.34,3.08-.75.65h0l.58.65h0l0,0h0v0h0l0,0h0l0,0h0l0,0h0l0,0h0l.56.58.71-.71c-.45-.45-.89-.93-1.32-1.41ZM46.94,411l-.66.76c.5.44,1,.86,1.55,1.26l.6-.8c-.51-.38-1-.79-1.49-1.22ZM50,413.35l-.54.84h0l0,0h0l0,0h0c.53.34,1.08.66,1.63.95l.47-.88c-.55-.3-1.11-.62-1.65-1Zm3.38,1.81-.4.92.42.17h0l.06,0H54l.05,0h0l.05,0h.58l0,0h0l.13.05.32-.95c-.6-.2-1.2-.44-1.79-.69ZM57,416.38l-.23,1,.21,0h0l.06,0h.14c.39.09.79.17,1.19.23h.36l.15-1c-.63-.09-1.26-.22-1.88-.37Zm3.78.58-.06,1c.35,0,.72,0,1.08.05h.91v-1h-.56c-.46,0-.92,0-1.37,0Zm5.93,0h-2v1h2v-1Zm4,0h-2v1h2v-1Zm4,0h-2v1h2v-1Zm4,0h-2v1h2v-1Zm4,0h-2v1h2v-1Zm4,0h-2v1h2v-1Zm4,0h-2v1h2v-1Zm4,0h-2v1h2v-1Zm4,0h-2v1h2v-1Zm4,0h-2v1h2v-1Zm4,0h-2v1h2v-1Zm4,0h-2v1h2v-1Zm4,0h-2v1h2v-1Zm4,0h-2v1h2v-1Zm4,0h-2v1h2v-1Zm4,0h-2v1h2v-1Zm4,0h-2v1h2v-1Zm4,0h-2v1h2v-1Zm4,0h-2v1h2v-1Zm4,0h-2v1h2v-1Zm4,0h-2v1h2v-1Zm4,0h-2v1h2v-1Zm4,0h-2v1h2v-1Zm4,0h-2v1h2v-1Zm4,0h-2v1h2v-1Zm4,0h-2v1h2v-1Zm4,0h-2v1h2v-1Zm4,0h-2v1h2v-1Zm4,0h-2v1h2v-1Zm4,0h-2v1h2v-1Zm4,0h-2v1h2v-1Zm4,0h-2v1h2v-1Zm4,0h-2v1h2v-1Zm4,0h-2v1h2v-1Zm4,0h-2v1h2v-1Zm4,0h-2v1h2v-1Zm4,0h-2v1h2v-1Zm4,0h-2v1h2v-1Zm4,0h-2v1h2v-1Zm4,0h-2v1h2v-1Zm4,0h-2v1h2v-1Zm4,0h-2v1h2v-1Zm4,0h-2v1h2v-1Zm4,0h-2v1h2v-1Zm4,0h-2v1h2v-1Zm4,0h-2v1h2v-1Zm4,0h-2v1h2v-1Zm4,0h-2v1h2v-1Zm4,0h-2v1h2v-1Zm4,0h-2v1h2v-1Zm4,0h-2v1h2v-1Zm4,0h-2v1h2v-1Zm4,0h-2v1h2v-1Zm4,0h-2v1h2v-1Zm4,0h-2v1h2v-1Zm3.87-.17c-.63.08-1.27.13-1.9.15l0,1h.06c.33,0,.67,0,1-.06h.71l.22,0-.13-1Zm3.73-.82c-.61.19-1.23.35-1.85.49l.22,1,1-.25h0l.05,0h.32l.48-.15h.06l-.3-1Zm3.55-1.44c-.57.29-1.16.56-1.75.79l.38.93.36-.15h.22l0,0h0l.06,0h0l.06,0h0l.05,0h0l.05,0h0l0,0h.32l.06,0h0l.52-.26-.45-.89Zm3.27-2c-.52.38-1.06.74-1.6,1.07l.53.85.46-.29h0l0,0h.06l0,0h0c.33-.21.66-.44,1-.67h0l0,0h.05l-.59-.81Zm2.95-2.47c-.46.44-.94.88-1.43,1.29l.65.76c.11-.09.22-.18.32-.28h0l0,0h0l0,0h0l0,0h0v0h0l0,0h0c.33-.29.66-.6,1-.91l-.7-.71Zm2.59-2.88c-.4.51-.82,1-1.25,1.48l.75.67h0l0,0h0c.37-.42.74-.85,1.09-1.29h0l0,0h0v0l0,0h0l0,0h0l.1-.13-.79-.62Zm2.21-3.18c-.34.55-.69,1.1-1.06,1.63l.83.57q.55-.83,1.08-1.68l-.85-.52Zm1.81-3.43c-.27.59-.56,1.17-.86,1.74l.89.47c0-.06.06-.11.08-.16h0v0h0v0h0v0h0v0h0l0,0h0v0h0v0h0v0h0v0h0v0h0v0h0v0h0v0h0v0h0v0h0v0h0v0h0v0h0v0h0v0h0v0h0l0-.05h0v0h0l0-.05h0v0h0c.11-.22.21-.44.31-.66l-.91-.41Zm1.42-3.62c-.2.61-.43,1.23-.66,1.83l.93.36c.24-.61.47-1.24.68-1.88l-.95-.31Zm1-3.76c-.14.64-.29,1.27-.46,1.89l1,.27q.27-1,.48-1.95l-1-.21Zm.62-3.84c-.07.64-.16,1.29-.26,1.93l1,.16a2.17,2.17,0,0,1,0-.25h0v0h0l0-.09h0v0h0v0h0V391h0v0h0v0h0v0h0v-.06h0v0h0v0h0v-.09h0v0h0v0h0v-.07h0v0h0v0h0v0h0v-.06h0v0h0v0h0v0h0v0h0v0h0v0h0v0h0v-.05h0v0h0c0-.19.05-.38.07-.57l-1-.11Zm.24-3.89c0,.64,0,1.3-.07,1.94l1,.06c0-.66.06-1.32.07-2Zm1-4h-1v2h1v-2Zm0-4h-1v2h1v-2Zm0-4h-1v2h1v-2Zm0-4h-1v2h1v-2Zm0-4h-1v2h1v-2Zm0-4h-1v2h1v-2Zm0-4h-1v2h1v-2Zm0-4h-1v2h1v-2Zm0-4h-1v2h1v-2Zm0-4h-1v2h1v-2Zm0-4h-1v2h1v-2Zm0-4h-1v2h1v-2Zm0-4h-1v2h1v-2Zm0-4h-1v2h1v-2Zm0-4h-1v2h1v-2Zm0-4h-1v2h1v-2Zm0-4h-1v2h1v-2Zm0-4h-1v2h1v-2Zm0-4h-1v2h1v-2Zm0-4h-1v2h1v-2Zm0-4h-1v2h1v-2Zm0-4h-1v2h1v-2Zm0-4h-1v2h1v-2Zm0-4h-1v2h1v-2Zm0-4h-1v2h1v-2Zm0-4h-1v2h1v-2Zm0-4h-1v2h1v-2Zm0-4h-1v2h1v-2Zm0-4h-1v2h1v-2Zm0-4h-1v2h1v-2Zm0-4h-1v2h1v-2Zm0-4h-1v2h1v-2Zm0-4h-1v2h1v-2Zm0-4h-1v2h1v-2Zm0-4h-1v2h1v-2Zm0-4h-1v2h1v-2Zm0-4h-1v2h1v-2Zm0-4h-1v2h1v-2Zm0-4h-1v2h1v-2Zm0-4h-1v2h1v-2Zm0-4h-1v2h1v-2Zm0-4h-1v2h1v-2Zm0-4h-1v2h1v-2Zm0-4h-1v2h1v-2Zm0-4h-1v2h1v-2Zm0-4h-1v2h1v-2Zm0-4h-1v2h1v-2Zm0-4h-1v2h1v-2Zm0-4h-1v2h1v-2Zm0-4h-1v2h1v-2Zm0-4h-1v2h1v-2Zm0-4h-1v2h1v-2Zm0-4h-1v2h1v-2Zm0-4h-1v2h1v-2Zm0-4h-1v2h1v-2Zm0-4h-1v2h1v-2Zm0-4h-1v2h1v-2Zm0-4h-1v2h1v-2Zm0-4h-1v2h1v-2Zm0-4h-1v2h1v-2Zm0-4h-1v2h1v-2Zm0-4h-1v2h1v-2Zm0-4h-1v2h1v-2Zm0-4h-1v2h1v-2Zm0-4h-1v2h1v-2Zm0-4h-1v2h1v-2Zm0-4h-1v2h1v-2Zm0-4h-1v2h1v-2Zm0-4h-1v2h1v-2Zm0-4h-1v2h1v-2Zm0-4h-1v2h1v-2Zm0-4h-1v2h1v-2Zm0-4h-1v2h1v-2Zm0-4h-1v2h1v-2Zm0-4h-1v2h1v-2Zm0-4h-1v2h1v-2Zm0-4h-1v2h1v-2Zm0-4-1,0v2h1v-2Zm-.24-4-1,.11c.07.65.13,1.3.17,2l1-.06-.09-1.19h0v-.09h0v0h0v0h0v0h0v-.06h0v0h0v0h0v-.12h0c0-.12,0-.24,0-.37Zm-.64-3.94-1,.21c.13.63.26,1.27.36,1.91l1-.16,0-.1h0v0h0v0h0v0h0v0h0v0h0c-.08-.46-.17-.92-.26-1.38h0v0h0a2.21,2.21,0,0,1-.05-.25Zm-1.05-3.86-.95.31c.2.61.39,1.24.56,1.87l1-.27-.15-.54h0v0h0l0-.06h0v0h0c-.08-.27-.15-.52-.24-.78h0v0h0v0h0v0h0c0-.12-.08-.23-.11-.35ZM307.61,58l-.91.41c.27.59.52,1.19.76,1.79l.93-.36c-.25-.63-.51-1.24-.78-1.84Zm-1.87-3.54-.86.52c.33.55.66,1.12,1,1.69l.88-.47q-.35-.66-.72-1.29h0v0h0l0,0h0v0h0l0,0h0v0h0c-.06-.09-.11-.18-.16-.27Zm-2.28-3.28-.78.62c.39.5.78,1,1.15,1.55l.82-.56-.54-.76h0v0h0l0-.05h0l0,0h0l0,0h0l0,0h0l0,0h0v0h0l-.47-.61Zm-2.68-3-.69.72c.45.44.91.91,1.34,1.39l.74-.67c-.45-.5-.91-1-1.39-1.44Zm-3.06-2.57-.58.81c.51.37,1,.77,1.52,1.19l.64-.77c-.51-.43-1-.84-1.58-1.23Zm-3.41-2.08-.45.89c.56.28,1.13.6,1.68.93l.52-.85-.26-.15h0l-.05,0h-.15l0,0h0l0,0h0l-.05,0h0c-.26-.15-.53-.29-.8-.43h0l0,0h0l0,0h-.15l-.06,0h0l0,0ZM290.61,42l-.3,1c.61.18,1.21.4,1.81.64l.37-.92-.21-.09h0l0,0h0l0,0h-.25c-.43-.16-.86-.31-1.3-.45Zm-3.9-.85-.13,1q.94.12,1.89.33l.21-1-.66-.13h-.54l-.74-.1h0ZM283.84,41v1l.84,0,0-1-.7,0h-.18Z" transform="translate(-35 -38)"/><path class="b" d="M228.5,235.5c12-4.16,62.49-22.29,61-42-.55-7.28-8.32-16.51-16-16s-14.73,10.94-13,18c2.24,9.1,19.73,15.78,33,12,17.22-4.9,21.81-24.08,45-67,10.25-19,19.59-34,26-44" transform="translate(-35 -38)"/><path class="b" d="M343.5,109.5" transform="translate(-35 -38)"/><path class="b" d="M368.5,114.5a47.68,47.68,0,0,1,2-27v1a45.65,45.65,0,0,1-28,13" transform="translate(-35 -38)"/></svg>